<mxfile host="app.diagrams.net" agent="Mozilla/5.0 (X11; Linux x86_64) AppleWebKit/537.36 (KHTML, like Gecko) Chrome/128.0.0.0 Safari/537.36" version="24.7.13">
  <diagram name="Page-1" id="69YmF6oGK2wG-4eP19aZ">
    <mxGraphModel dx="5125" dy="3185" grid="1" gridSize="1" guides="1" tooltips="1" connect="1" arrows="1" fold="1" page="1" pageScale="1" pageWidth="1600" pageHeight="1200" math="0" shadow="0">
      <root>
        <mxCell id="0" />
        <mxCell id="1" parent="0" />
        <mxCell id="UE9l_4JBoyCNHq1S5aQx-130" value="" style="group" vertex="1" connectable="0" parent="1">
          <mxGeometry x="16" y="107" width="3144" height="2220" as="geometry" />
        </mxCell>
        <mxCell id="UE9l_4JBoyCNHq1S5aQx-13" style="edgeStyle=orthogonalEdgeStyle;rounded=0;orthogonalLoop=1;jettySize=auto;html=1;fontSize=15;" edge="1" parent="UE9l_4JBoyCNHq1S5aQx-130" source="UE9l_4JBoyCNHq1S5aQx-3" target="UE9l_4JBoyCNHq1S5aQx-5">
          <mxGeometry relative="1" as="geometry" />
        </mxCell>
        <mxCell id="UE9l_4JBoyCNHq1S5aQx-3" value="gNB RU&lt;div style=&quot;font-size: 15px;&quot;&gt;USRP / Benetel&lt;/div&gt;" style="fontColor=#0066CC;verticalAlign=top;verticalLabelPosition=bottom;labelPosition=center;align=center;html=1;outlineConnect=0;fillColor=#CCCCCC;strokeColor=#6881B3;gradientColor=none;gradientDirection=north;strokeWidth=2;shape=mxgraph.networks.radio_tower;fontSize=15;" vertex="1" parent="UE9l_4JBoyCNHq1S5aQx-130">
          <mxGeometry x="1072.1846153846157" y="1505.5993563958164" width="88.67692307692307" height="178.60016090104585" as="geometry" />
        </mxCell>
        <mxCell id="UE9l_4JBoyCNHq1S5aQx-5" value="UE RU&lt;div style=&quot;font-size: 15px;&quot;&gt;USRP / other RU&lt;/div&gt;" style="fontColor=#0066CC;verticalAlign=top;verticalLabelPosition=bottom;labelPosition=center;align=center;html=1;outlineConnect=0;fillColor=#CCCCCC;strokeColor=#6881B3;gradientColor=none;gradientDirection=north;strokeWidth=2;shape=mxgraph.networks.wireless_modem;fontSize=15;" vertex="1" parent="UE9l_4JBoyCNHq1S5aQx-130">
          <mxGeometry x="1768.7015384615386" y="1520.7803700724055" width="161.23076923076923" height="151.81013676588898" as="geometry" />
        </mxCell>
        <mxCell id="UE9l_4JBoyCNHq1S5aQx-7" value="ZMQ / GNU Radio" style="rounded=1;whiteSpace=wrap;html=1;fontSize=15;" vertex="1" parent="UE9l_4JBoyCNHq1S5aQx-130">
          <mxGeometry x="1757.415384615385" y="1817.2566371681414" width="193.47692307692313" height="107.16009654062749" as="geometry" />
        </mxCell>
        <mxCell id="UE9l_4JBoyCNHq1S5aQx-11" style="edgeStyle=orthogonalEdgeStyle;rounded=0;orthogonalLoop=1;jettySize=auto;html=1;entryX=0;entryY=0.5;entryDx=0;entryDy=0;fontSize=15;" edge="1" parent="UE9l_4JBoyCNHq1S5aQx-130" source="UE9l_4JBoyCNHq1S5aQx-10" target="UE9l_4JBoyCNHq1S5aQx-7">
          <mxGeometry relative="1" as="geometry" />
        </mxCell>
        <mxCell id="UE9l_4JBoyCNHq1S5aQx-12" value="Emulated Channel" style="text;html=1;align=center;verticalAlign=middle;resizable=0;points=[];autosize=1;strokeColor=none;fillColor=none;fontSize=15;" vertex="1" parent="UE9l_4JBoyCNHq1S5aQx-130">
          <mxGeometry x="1478.486153846154" y="1877.9806918744969" width="142" height="31" as="geometry" />
        </mxCell>
        <mxCell id="UE9l_4JBoyCNHq1S5aQx-14" value="Physical Channel" style="text;html=1;align=center;verticalAlign=middle;resizable=0;points=[];autosize=1;strokeColor=none;fillColor=none;fontSize=15;" vertex="1" parent="UE9l_4JBoyCNHq1S5aQx-130">
          <mxGeometry x="1467.2000000000003" y="1611.8664521319388" width="135" height="31" as="geometry" />
        </mxCell>
        <mxCell id="UE9l_4JBoyCNHq1S5aQx-15" value="MainApp" style="rounded=1;whiteSpace=wrap;html=1;fontSize=15;" vertex="1" parent="UE9l_4JBoyCNHq1S5aQx-130">
          <mxGeometry x="2260.455384615385" y="916.2188254223653" width="193.47692307692313" height="107.16009654062749" as="geometry" />
        </mxCell>
        <mxCell id="UE9l_4JBoyCNHq1S5aQx-24" style="edgeStyle=orthogonalEdgeStyle;rounded=0;orthogonalLoop=1;jettySize=auto;html=1;entryX=0.5;entryY=0;entryDx=0;entryDy=0;fontSize=15;" edge="1" parent="UE9l_4JBoyCNHq1S5aQx-130" source="UE9l_4JBoyCNHq1S5aQx-16" target="UE9l_4JBoyCNHq1S5aQx-20">
          <mxGeometry relative="1" as="geometry" />
        </mxCell>
        <mxCell id="UE9l_4JBoyCNHq1S5aQx-16" value="YAML config" style="shape=card;whiteSpace=wrap;html=1;fontSize=15;" vertex="1" parent="UE9l_4JBoyCNHq1S5aQx-130">
          <mxGeometry x="2299.150769230769" y="362.55832662912303" width="119.31076923076922" height="167.88415124698312" as="geometry" />
        </mxCell>
        <mxCell id="UE9l_4JBoyCNHq1S5aQx-25" style="edgeStyle=orthogonalEdgeStyle;rounded=0;orthogonalLoop=1;jettySize=auto;html=1;entryX=0.5;entryY=0;entryDx=0;entryDy=0;fontSize=15;" edge="1" parent="UE9l_4JBoyCNHq1S5aQx-130" source="UE9l_4JBoyCNHq1S5aQx-20" target="UE9l_4JBoyCNHq1S5aQx-15">
          <mxGeometry relative="1" as="geometry" />
        </mxCell>
        <mxCell id="UE9l_4JBoyCNHq1S5aQx-20" value="Parameters" style="swimlane;fontStyle=0;childLayout=stackLayout;horizontal=1;startSize=30;horizontalStack=0;resizeParent=1;resizeParentMax=0;resizeLast=0;collapsible=1;marginBottom=0;whiteSpace=wrap;html=1;fillColor=#FFFFFF;shadow=0;fontSize=15;" vertex="1" parent="UE9l_4JBoyCNHq1S5aQx-130">
          <mxGeometry x="2054.0800000000004" y="616.1705551086081" width="606.2276923076922" height="190.74014481094122" as="geometry" />
        </mxCell>
        <mxCell id="UE9l_4JBoyCNHq1S5aQx-21" value="namespaces: list of gateways to configure" style="text;strokeColor=none;fillColor=none;align=left;verticalAlign=middle;spacingLeft=4;spacingRight=4;overflow=hidden;points=[[0,0.5],[1,0.5]];portConstraint=eastwest;rotatable=0;whiteSpace=wrap;html=1;fontSize=15;" vertex="1" parent="UE9l_4JBoyCNHq1S5aQx-20">
          <mxGeometry y="30" width="606.2276923076922" height="53.580048270313746" as="geometry" />
        </mxCell>
        <mxCell id="UE9l_4JBoyCNHq1S5aQx-22" value="processes: list of processes and arguments" style="text;strokeColor=none;fillColor=none;align=left;verticalAlign=middle;spacingLeft=4;spacingRight=4;overflow=hidden;points=[[0,0.5],[1,0.5]];portConstraint=eastwest;rotatable=0;whiteSpace=wrap;html=1;fontSize=15;" vertex="1" parent="UE9l_4JBoyCNHq1S5aQx-20">
          <mxGeometry y="83.58004827031374" width="606.2276923076922" height="53.580048270313746" as="geometry" />
        </mxCell>
        <mxCell id="UE9l_4JBoyCNHq1S5aQx-23" value="gnb: type and config file for the gNB" style="text;strokeColor=none;fillColor=none;align=left;verticalAlign=middle;spacingLeft=4;spacingRight=4;overflow=hidden;points=[[0,0.5],[1,0.5]];portConstraint=eastwest;rotatable=0;whiteSpace=wrap;html=1;fontSize=15;" vertex="1" parent="UE9l_4JBoyCNHq1S5aQx-20">
          <mxGeometry y="137.16009654062748" width="606.2276923076922" height="53.580048270313746" as="geometry" />
        </mxCell>
        <mxCell id="UE9l_4JBoyCNHq1S5aQx-77" style="edgeStyle=orthogonalEdgeStyle;rounded=0;orthogonalLoop=1;jettySize=auto;html=1;entryX=0;entryY=0.5;entryDx=0;entryDy=0;fontSize=15;" edge="1" parent="UE9l_4JBoyCNHq1S5aQx-130" source="UE9l_4JBoyCNHq1S5aQx-26" target="UE9l_4JBoyCNHq1S5aQx-35">
          <mxGeometry relative="1" as="geometry" />
        </mxCell>
        <mxCell id="UE9l_4JBoyCNHq1S5aQx-26" value="ResultsPage" style="rounded=1;whiteSpace=wrap;html=1;fontSize=15;" vertex="1" parent="UE9l_4JBoyCNHq1S5aQx-130">
          <mxGeometry x="1776.7630769230773" y="916.2188254223653" width="193.47692307692313" height="107.16009654062749" as="geometry" />
        </mxCell>
        <mxCell id="UE9l_4JBoyCNHq1S5aQx-31" style="edgeStyle=orthogonalEdgeStyle;rounded=0;orthogonalLoop=1;jettySize=auto;html=1;fontSize=15;" edge="1" parent="UE9l_4JBoyCNHq1S5aQx-130" source="UE9l_4JBoyCNHq1S5aQx-27">
          <mxGeometry relative="1" as="geometry">
            <mxPoint x="2355.581538461539" y="1026.9509251810136" as="targetPoint" />
          </mxGeometry>
        </mxCell>
        <mxCell id="UE9l_4JBoyCNHq1S5aQx-41" value="" style="edgeStyle=orthogonalEdgeStyle;rounded=0;orthogonalLoop=1;jettySize=auto;html=1;fontSize=15;" edge="1" parent="UE9l_4JBoyCNHq1S5aQx-130" source="UE9l_4JBoyCNHq1S5aQx-27" target="UE9l_4JBoyCNHq1S5aQx-40">
          <mxGeometry relative="1" as="geometry">
            <Array as="points">
              <mxPoint x="2355.581538461539" y="1455.591311343524" />
            </Array>
          </mxGeometry>
        </mxCell>
        <mxCell id="UE9l_4JBoyCNHq1S5aQx-48" value="" style="edgeStyle=orthogonalEdgeStyle;rounded=0;orthogonalLoop=1;jettySize=auto;html=1;fontSize=15;" edge="1" parent="UE9l_4JBoyCNHq1S5aQx-130" source="UE9l_4JBoyCNHq1S5aQx-27" target="UE9l_4JBoyCNHq1S5aQx-47">
          <mxGeometry relative="1" as="geometry" />
        </mxCell>
        <mxCell id="UE9l_4JBoyCNHq1S5aQx-83" style="edgeStyle=orthogonalEdgeStyle;rounded=0;orthogonalLoop=1;jettySize=auto;html=1;entryX=1;entryY=0.75;entryDx=0;entryDy=0;fontSize=15;" edge="1" parent="UE9l_4JBoyCNHq1S5aQx-130" source="UE9l_4JBoyCNHq1S5aQx-27" target="UE9l_4JBoyCNHq1S5aQx-45">
          <mxGeometry relative="1" as="geometry">
            <Array as="points">
              <mxPoint x="2357.1938461538466" y="1459.1633145615447" />
              <mxPoint x="2624.836923076923" y="1459.1633145615447" />
              <mxPoint x="2624.836923076923" y="1848.5116653258247" />
            </Array>
          </mxGeometry>
        </mxCell>
        <mxCell id="UE9l_4JBoyCNHq1S5aQx-27" value="ProcessesPage" style="rounded=1;whiteSpace=wrap;html=1;fontSize=15;" vertex="1" parent="UE9l_4JBoyCNHq1S5aQx-130">
          <mxGeometry x="2260.455384615385" y="1203.765084473049" width="193.47692307692313" height="107.16009654062749" as="geometry" />
        </mxCell>
        <mxCell id="UE9l_4JBoyCNHq1S5aQx-80" style="edgeStyle=orthogonalEdgeStyle;rounded=0;orthogonalLoop=1;jettySize=auto;html=1;fontSize=15;" edge="1" parent="UE9l_4JBoyCNHq1S5aQx-130" source="UE9l_4JBoyCNHq1S5aQx-28" target="UE9l_4JBoyCNHq1S5aQx-38">
          <mxGeometry relative="1" as="geometry" />
        </mxCell>
        <mxCell id="UE9l_4JBoyCNHq1S5aQx-81" style="edgeStyle=orthogonalEdgeStyle;rounded=0;orthogonalLoop=1;jettySize=auto;html=1;entryX=1;entryY=0.5;entryDx=0;entryDy=0;fontSize=15;" edge="1" parent="UE9l_4JBoyCNHq1S5aQx-130" source="UE9l_4JBoyCNHq1S5aQx-28" target="UE9l_4JBoyCNHq1S5aQx-27">
          <mxGeometry relative="1" as="geometry">
            <Array as="points">
              <mxPoint x="2881.1938461538466" y="1257.345132743363" />
            </Array>
          </mxGeometry>
        </mxCell>
        <mxCell id="UE9l_4JBoyCNHq1S5aQx-28" value="AttacksPage" style="rounded=1;whiteSpace=wrap;html=1;fontSize=15;" vertex="1" parent="UE9l_4JBoyCNHq1S5aQx-130">
          <mxGeometry x="2784.4553846153844" y="914.4328238133547" width="193.47692307692313" height="107.16009654062749" as="geometry" />
        </mxCell>
        <mxCell id="UE9l_4JBoyCNHq1S5aQx-33" value="Process Logs, Process Status" style="rounded=0;whiteSpace=wrap;html=1;fontSize=15;" vertex="1" parent="UE9l_4JBoyCNHq1S5aQx-130">
          <mxGeometry x="2205.6369230769233" y="1109.1069991954946" width="341.8092307692308" height="42.864038616251" as="geometry" />
        </mxCell>
        <mxCell id="UE9l_4JBoyCNHq1S5aQx-76" style="edgeStyle=orthogonalEdgeStyle;rounded=0;orthogonalLoop=1;jettySize=auto;html=1;entryX=0;entryY=0.5;entryDx=0;entryDy=0;fontSize=15;" edge="1" parent="UE9l_4JBoyCNHq1S5aQx-130" source="UE9l_4JBoyCNHq1S5aQx-35" target="UE9l_4JBoyCNHq1S5aQx-15">
          <mxGeometry relative="1" as="geometry" />
        </mxCell>
        <mxCell id="UE9l_4JBoyCNHq1S5aQx-35" value="Generated&lt;div style=&quot;font-size: 15px;&quot;&gt;Graphs&lt;/div&gt;" style="rounded=0;whiteSpace=wrap;html=1;fontSize=15;" vertex="1" parent="UE9l_4JBoyCNHq1S5aQx-130">
          <mxGeometry x="2052.4676923076927" y="914.4328238133547" width="108.02461538461539" height="107.16009654062749" as="geometry" />
        </mxCell>
        <mxCell id="UE9l_4JBoyCNHq1S5aQx-79" style="edgeStyle=orthogonalEdgeStyle;rounded=0;orthogonalLoop=1;jettySize=auto;html=1;fontSize=15;" edge="1" parent="UE9l_4JBoyCNHq1S5aQx-130" source="UE9l_4JBoyCNHq1S5aQx-38" target="UE9l_4JBoyCNHq1S5aQx-15">
          <mxGeometry relative="1" as="geometry" />
        </mxCell>
        <mxCell id="UE9l_4JBoyCNHq1S5aQx-38" value="Attack&lt;div style=&quot;font-size: 15px;&quot;&gt;Documentation&lt;/div&gt;" style="rounded=0;whiteSpace=wrap;html=1;fontSize=15;" vertex="1" parent="UE9l_4JBoyCNHq1S5aQx-130">
          <mxGeometry x="2521.649230769231" y="919.7908286403862" width="140.27076923076925" height="96.44408688656478" as="geometry" />
        </mxCell>
        <mxCell id="UE9l_4JBoyCNHq1S5aQx-74" style="edgeStyle=orthogonalEdgeStyle;rounded=0;orthogonalLoop=1;jettySize=auto;html=1;fontSize=15;" edge="1" parent="UE9l_4JBoyCNHq1S5aQx-130" source="UE9l_4JBoyCNHq1S5aQx-40">
          <mxGeometry relative="1" as="geometry">
            <mxPoint x="2008.935384615385" y="1646.6934835076427" as="targetPoint" />
          </mxGeometry>
        </mxCell>
        <mxCell id="UE9l_4JBoyCNHq1S5aQx-40" value="Clean UE" style="whiteSpace=wrap;html=1;rounded=1;fontSize=15;" vertex="1" parent="UE9l_4JBoyCNHq1S5aQx-130">
          <mxGeometry x="2407.1753846153847" y="1594.8994368463395" width="193.47692307692313" height="107.16009654062749" as="geometry" />
        </mxCell>
        <mxCell id="UE9l_4JBoyCNHq1S5aQx-70" style="edgeStyle=orthogonalEdgeStyle;rounded=0;orthogonalLoop=1;jettySize=auto;html=1;fontSize=15;" edge="1" parent="UE9l_4JBoyCNHq1S5aQx-130" source="UE9l_4JBoyCNHq1S5aQx-45">
          <mxGeometry relative="1" as="geometry">
            <mxPoint x="2005.7107692307695" y="1821.721641190668" as="targetPoint" />
          </mxGeometry>
        </mxCell>
        <mxCell id="UE9l_4JBoyCNHq1S5aQx-91" style="edgeStyle=orthogonalEdgeStyle;rounded=0;orthogonalLoop=1;jettySize=auto;html=1;entryX=0.5;entryY=1;entryDx=0;entryDy=0;fontSize=15;" edge="1" parent="UE9l_4JBoyCNHq1S5aQx-130" source="UE9l_4JBoyCNHq1S5aQx-45" target="UE9l_4JBoyCNHq1S5aQx-26">
          <mxGeometry relative="1" as="geometry">
            <Array as="points">
              <mxPoint x="2831.2123076923076" y="1821.721641190668" />
              <mxPoint x="2831.2123076923076" y="1364.5052292839903" />
              <mxPoint x="1873.5015384615385" y="1364.5052292839903" />
            </Array>
          </mxGeometry>
        </mxCell>
        <mxCell id="UE9l_4JBoyCNHq1S5aQx-45" value="Tester UE" style="whiteSpace=wrap;html=1;rounded=1;fontSize=15;" vertex="1" parent="UE9l_4JBoyCNHq1S5aQx-130">
          <mxGeometry x="2407.1753846153847" y="1768.141592920354" width="193.47692307692313" height="107.16009654062749" as="geometry" />
        </mxCell>
        <mxCell id="UE9l_4JBoyCNHq1S5aQx-49" style="edgeStyle=orthogonalEdgeStyle;rounded=0;orthogonalLoop=1;jettySize=auto;html=1;fontSize=15;" edge="1" parent="UE9l_4JBoyCNHq1S5aQx-130" source="UE9l_4JBoyCNHq1S5aQx-47">
          <mxGeometry relative="1" as="geometry">
            <mxPoint x="1583.286153846154" y="1591.3274336283189" as="targetPoint" />
          </mxGeometry>
        </mxCell>
        <mxCell id="UE9l_4JBoyCNHq1S5aQx-78" style="edgeStyle=orthogonalEdgeStyle;rounded=0;orthogonalLoop=1;jettySize=auto;html=1;entryX=0;entryY=0.5;entryDx=0;entryDy=0;fontSize=15;" edge="1" parent="UE9l_4JBoyCNHq1S5aQx-130" source="UE9l_4JBoyCNHq1S5aQx-47" target="UE9l_4JBoyCNHq1S5aQx-26">
          <mxGeometry relative="1" as="geometry">
            <Array as="points">
              <mxPoint x="1584.8984615384616" y="969.798873692679" />
            </Array>
          </mxGeometry>
        </mxCell>
        <mxCell id="UE9l_4JBoyCNHq1S5aQx-47" value="Channel Interface" style="whiteSpace=wrap;html=1;rounded=1;fontSize=15;" vertex="1" parent="UE9l_4JBoyCNHq1S5aQx-130">
          <mxGeometry x="1328.5415384615387" y="1043.0249396621077" width="193.47692307692313" height="105.37409493161705" as="geometry" />
        </mxCell>
        <mxCell id="UE9l_4JBoyCNHq1S5aQx-54" value="" style="endArrow=classic;html=1;rounded=0;entryX=0.75;entryY=1;entryDx=0;entryDy=0;fontSize=15;" edge="1" parent="UE9l_4JBoyCNHq1S5aQx-130" target="UE9l_4JBoyCNHq1S5aQx-47">
          <mxGeometry width="50" height="50" relative="1" as="geometry">
            <mxPoint x="1473.649230769231" y="1573.4674175382138" as="sourcePoint" />
            <mxPoint x="1747.7415384615385" y="1355.575221238938" as="targetPoint" />
          </mxGeometry>
        </mxCell>
        <mxCell id="UE9l_4JBoyCNHq1S5aQx-56" value="Channel Attacks" style="swimlane;fontStyle=0;childLayout=stackLayout;horizontal=1;startSize=30;horizontalStack=0;resizeParent=1;resizeParentMax=0;resizeLast=0;collapsible=1;marginBottom=0;whiteSpace=wrap;html=1;fontSize=15;" vertex="1" parent="UE9l_4JBoyCNHq1S5aQx-130">
          <mxGeometry x="1233.415384615385" y="1280.5631536604988" width="225.72307692307697" height="190.74014481094122" as="geometry" />
        </mxCell>
        <mxCell id="UE9l_4JBoyCNHq1S5aQx-57" value="Jamming" style="text;strokeColor=none;fillColor=none;align=left;verticalAlign=middle;spacingLeft=4;spacingRight=4;overflow=hidden;points=[[0,0.5],[1,0.5]];portConstraint=eastwest;rotatable=0;whiteSpace=wrap;html=1;fontSize=15;" vertex="1" parent="UE9l_4JBoyCNHq1S5aQx-56">
          <mxGeometry y="30" width="225.72307692307697" height="53.580048270313746" as="geometry" />
        </mxCell>
        <mxCell id="UE9l_4JBoyCNHq1S5aQx-58" value="Message Replay" style="text;strokeColor=none;fillColor=none;align=left;verticalAlign=middle;spacingLeft=4;spacingRight=4;overflow=hidden;points=[[0,0.5],[1,0.5]];portConstraint=eastwest;rotatable=0;whiteSpace=wrap;html=1;fontSize=15;" vertex="1" parent="UE9l_4JBoyCNHq1S5aQx-56">
          <mxGeometry y="83.58004827031374" width="225.72307692307697" height="53.580048270313746" as="geometry" />
        </mxCell>
        <mxCell id="UE9l_4JBoyCNHq1S5aQx-59" value="Eavesdropping" style="text;strokeColor=none;fillColor=none;align=left;verticalAlign=middle;spacingLeft=4;spacingRight=4;overflow=hidden;points=[[0,0.5],[1,0.5]];portConstraint=eastwest;rotatable=0;whiteSpace=wrap;html=1;fontSize=15;" vertex="1" parent="UE9l_4JBoyCNHq1S5aQx-56">
          <mxGeometry y="137.16009654062748" width="225.72307692307697" height="53.580048270313746" as="geometry" />
        </mxCell>
        <mxCell id="UE9l_4JBoyCNHq1S5aQx-62" value="Tester UE Attacks" style="swimlane;fontStyle=0;childLayout=stackLayout;horizontal=1;startSize=29;horizontalStack=0;resizeParent=1;resizeParentMax=0;resizeLast=0;collapsible=1;marginBottom=0;whiteSpace=wrap;html=1;fontSize=15;" vertex="1" parent="UE9l_4JBoyCNHq1S5aQx-130">
          <mxGeometry x="2128.2461538461544" y="1884.231697506034" width="303.1138461538461" height="243.32019308125496" as="geometry" />
        </mxCell>
        <mxCell id="UE9l_4JBoyCNHq1S5aQx-63" value="Fuzzing" style="text;strokeColor=none;fillColor=none;align=left;verticalAlign=middle;spacingLeft=4;spacingRight=4;overflow=hidden;points=[[0,0.5],[1,0.5]];portConstraint=eastwest;rotatable=0;whiteSpace=wrap;html=1;fontSize=15;" vertex="1" parent="UE9l_4JBoyCNHq1S5aQx-62">
          <mxGeometry y="29" width="303.1138461538461" height="53.580048270313746" as="geometry" />
        </mxCell>
        <mxCell id="UE9l_4JBoyCNHq1S5aQx-64" value="DDoS" style="text;strokeColor=none;fillColor=none;align=left;verticalAlign=middle;spacingLeft=4;spacingRight=4;overflow=hidden;points=[[0,0.5],[1,0.5]];portConstraint=eastwest;rotatable=0;whiteSpace=wrap;html=1;fontSize=15;" vertex="1" parent="UE9l_4JBoyCNHq1S5aQx-62">
          <mxGeometry y="82.58004827031374" width="303.1138461538461" height="53.580048270313746" as="geometry" />
        </mxCell>
        <mxCell id="UE9l_4JBoyCNHq1S5aQx-65" value="Impersonation" style="text;strokeColor=none;fillColor=none;align=left;verticalAlign=middle;spacingLeft=4;spacingRight=4;overflow=hidden;points=[[0,0.5],[1,0.5]];portConstraint=eastwest;rotatable=0;whiteSpace=wrap;html=1;fontSize=15;" vertex="1" parent="UE9l_4JBoyCNHq1S5aQx-62">
          <mxGeometry y="136.16009654062748" width="303.1138461538461" height="53.580048270313746" as="geometry" />
        </mxCell>
        <mxCell id="UE9l_4JBoyCNHq1S5aQx-67" value="Compression Poisoning" style="text;strokeColor=none;fillColor=none;align=left;verticalAlign=middle;spacingLeft=4;spacingRight=4;overflow=hidden;points=[[0,0.5],[1,0.5]];portConstraint=eastwest;rotatable=0;whiteSpace=wrap;html=1;fontSize=15;" vertex="1" parent="UE9l_4JBoyCNHq1S5aQx-62">
          <mxGeometry y="189.74014481094122" width="303.1138461538461" height="53.580048270313746" as="geometry" />
        </mxCell>
        <mxCell id="UE9l_4JBoyCNHq1S5aQx-73" value="Channel or Emulation" style="text;html=1;align=center;verticalAlign=middle;resizable=0;points=[];autosize=1;strokeColor=none;fillColor=none;fontSize=15;" vertex="1" parent="UE9l_4JBoyCNHq1S5aQx-130">
          <mxGeometry x="2110.5107692307693" y="1705.6315366049878" width="163" height="31" as="geometry" />
        </mxCell>
        <mxCell id="UE9l_4JBoyCNHq1S5aQx-82" value="Attack configuration" style="text;html=1;align=center;verticalAlign=middle;resizable=0;points=[];autosize=1;strokeColor=none;fillColor=none;fontSize=15;" vertex="1" parent="UE9l_4JBoyCNHq1S5aQx-130">
          <mxGeometry x="2528.098461538462" y="1180.547063555913" width="151" height="31" as="geometry" />
        </mxCell>
        <mxCell id="UE9l_4JBoyCNHq1S5aQx-84" value="Channel Data" style="swimlane;fontStyle=0;childLayout=stackLayout;horizontal=1;startSize=30;horizontalStack=0;resizeParent=1;resizeParentMax=0;resizeLast=0;collapsible=1;marginBottom=0;whiteSpace=wrap;html=1;fontSize=15;" vertex="1" parent="UE9l_4JBoyCNHq1S5aQx-130">
          <mxGeometry x="1331.766153846154" y="678.6806114239743" width="248.29538461538465" height="244.32019308125496" as="geometry" />
        </mxCell>
        <mxCell id="UE9l_4JBoyCNHq1S5aQx-85" value="Encryption Algorithm" style="text;strokeColor=none;fillColor=none;align=left;verticalAlign=middle;spacingLeft=4;spacingRight=4;overflow=hidden;points=[[0,0.5],[1,0.5]];portConstraint=eastwest;rotatable=0;whiteSpace=wrap;html=1;fontSize=15;" vertex="1" parent="UE9l_4JBoyCNHq1S5aQx-84">
          <mxGeometry y="30" width="248.29538461538465" height="53.580048270313746" as="geometry" />
        </mxCell>
        <mxCell id="UE9l_4JBoyCNHq1S5aQx-86" value="Protocol" style="text;strokeColor=none;fillColor=none;align=left;verticalAlign=middle;spacingLeft=4;spacingRight=4;overflow=hidden;points=[[0,0.5],[1,0.5]];portConstraint=eastwest;rotatable=0;whiteSpace=wrap;html=1;fontSize=15;" vertex="1" parent="UE9l_4JBoyCNHq1S5aQx-84">
          <mxGeometry y="83.58004827031374" width="248.29538461538465" height="53.580048270313746" as="geometry" />
        </mxCell>
        <mxCell id="UE9l_4JBoyCNHq1S5aQx-87" value="Current RRC state" style="text;strokeColor=none;fillColor=none;align=left;verticalAlign=middle;spacingLeft=4;spacingRight=4;overflow=hidden;points=[[0,0.5],[1,0.5]];portConstraint=eastwest;rotatable=0;whiteSpace=wrap;html=1;fontSize=15;" vertex="1" parent="UE9l_4JBoyCNHq1S5aQx-84">
          <mxGeometry y="137.16009654062748" width="248.29538461538465" height="53.580048270313746" as="geometry" />
        </mxCell>
        <mxCell id="UE9l_4JBoyCNHq1S5aQx-89" value="Band" style="text;strokeColor=none;fillColor=none;align=left;verticalAlign=middle;spacingLeft=4;spacingRight=4;overflow=hidden;points=[[0,0.5],[1,0.5]];portConstraint=eastwest;rotatable=0;whiteSpace=wrap;html=1;fontSize=15;" vertex="1" parent="UE9l_4JBoyCNHq1S5aQx-84">
          <mxGeometry y="190.74014481094122" width="248.29538461538465" height="53.580048270313746" as="geometry" />
        </mxCell>
        <mxCell id="UE9l_4JBoyCNHq1S5aQx-92" value="UE Metrics" style="swimlane;fontStyle=0;childLayout=stackLayout;horizontal=1;startSize=30;horizontalStack=0;resizeParent=1;resizeParentMax=0;resizeLast=0;collapsible=1;marginBottom=0;whiteSpace=wrap;html=1;fontSize=15;" vertex="1" parent="UE9l_4JBoyCNHq1S5aQx-130">
          <mxGeometry x="2062.141538461539" y="1371.649235720032" width="225.72307692307697" height="137.16009654062748" as="geometry" />
        </mxCell>
        <mxCell id="UE9l_4JBoyCNHq1S5aQx-93" value="Iperf Bandwidth" style="text;strokeColor=none;fillColor=none;align=left;verticalAlign=middle;spacingLeft=4;spacingRight=4;overflow=hidden;points=[[0,0.5],[1,0.5]];portConstraint=eastwest;rotatable=0;whiteSpace=wrap;html=1;fontSize=15;" vertex="1" parent="UE9l_4JBoyCNHq1S5aQx-92">
          <mxGeometry y="30" width="225.72307692307697" height="53.580048270313746" as="geometry" />
        </mxCell>
        <mxCell id="UE9l_4JBoyCNHq1S5aQx-94" value="Ping latency" style="text;strokeColor=none;fillColor=none;align=left;verticalAlign=middle;spacingLeft=4;spacingRight=4;overflow=hidden;points=[[0,0.5],[1,0.5]];portConstraint=eastwest;rotatable=0;whiteSpace=wrap;html=1;fontSize=15;" vertex="1" parent="UE9l_4JBoyCNHq1S5aQx-92">
          <mxGeometry y="83.58004827031374" width="225.72307692307697" height="53.580048270313746" as="geometry" />
        </mxCell>
        <mxCell id="UE9l_4JBoyCNHq1S5aQx-101" style="edgeStyle=orthogonalEdgeStyle;rounded=0;orthogonalLoop=1;jettySize=auto;html=1;entryX=1;entryY=0.25;entryDx=0;entryDy=0;" edge="1" parent="UE9l_4JBoyCNHq1S5aQx-130" source="UE9l_4JBoyCNHq1S5aQx-97" target="UE9l_4JBoyCNHq1S5aQx-98">
          <mxGeometry relative="1" as="geometry">
            <Array as="points">
              <mxPoint x="561.083076923077" y="1460.9493161705552" />
              <mxPoint x="561.083076923077" y="1460.9493161705552" />
            </Array>
          </mxGeometry>
        </mxCell>
        <mxCell id="UE9l_4JBoyCNHq1S5aQx-107" style="edgeStyle=orthogonalEdgeStyle;rounded=0;orthogonalLoop=1;jettySize=auto;html=1;entryX=1;entryY=0.5;entryDx=0;entryDy=0;" edge="1" parent="UE9l_4JBoyCNHq1S5aQx-130" source="UE9l_4JBoyCNHq1S5aQx-97" target="UE9l_4JBoyCNHq1S5aQx-104">
          <mxGeometry relative="1" as="geometry">
            <Array as="points">
              <mxPoint x="778.7446153846155" y="1834.2236524537407" />
            </Array>
          </mxGeometry>
        </mxCell>
        <mxCell id="UE9l_4JBoyCNHq1S5aQx-127" style="edgeStyle=orthogonalEdgeStyle;rounded=0;orthogonalLoop=1;jettySize=auto;html=1;" edge="1" parent="UE9l_4JBoyCNHq1S5aQx-130" source="UE9l_4JBoyCNHq1S5aQx-97" target="UE9l_4JBoyCNHq1S5aQx-105">
          <mxGeometry relative="1" as="geometry" />
        </mxCell>
        <mxCell id="UE9l_4JBoyCNHq1S5aQx-97" value="Linux gNB Deamon" style="rounded=1;whiteSpace=wrap;html=1;fontSize=15;" vertex="1" parent="UE9l_4JBoyCNHq1S5aQx-130">
          <mxGeometry x="617.5138461538462" y="1394.867256637168" width="307.95076923076925" height="221.46419951729686" as="geometry" />
        </mxCell>
        <mxCell id="UE9l_4JBoyCNHq1S5aQx-108" style="edgeStyle=orthogonalEdgeStyle;rounded=0;orthogonalLoop=1;jettySize=auto;html=1;entryX=0;entryY=0.5;entryDx=0;entryDy=0;" edge="1" parent="UE9l_4JBoyCNHq1S5aQx-130" source="UE9l_4JBoyCNHq1S5aQx-98" target="UE9l_4JBoyCNHq1S5aQx-104">
          <mxGeometry relative="1" as="geometry">
            <Array as="points">
              <mxPoint x="201.53846153846155" y="1834.2236524537407" />
            </Array>
          </mxGeometry>
        </mxCell>
        <mxCell id="UE9l_4JBoyCNHq1S5aQx-98" value="Open5gs Core&amp;nbsp;&lt;div style=&quot;font-size: 15px;&quot;&gt;Network Daemon&lt;/div&gt;" style="rounded=1;whiteSpace=wrap;html=1;fontSize=15;" vertex="1" parent="UE9l_4JBoyCNHq1S5aQx-130">
          <mxGeometry x="54.818461538461534" y="1391.2952534191475" width="306.33846153846156" height="275.93724859211585" as="geometry" />
        </mxCell>
        <mxCell id="UE9l_4JBoyCNHq1S5aQx-99" value="" style="image;sketch=0;aspect=fixed;html=1;points=[];align=center;fontSize=15;image=img/lib/mscae/Docker.svg;" vertex="1" parent="UE9l_4JBoyCNHq1S5aQx-130">
          <mxGeometry x="256.3569230769231" y="1407.369267900241" width="78.13471657498206" height="64.0704675914853" as="geometry" />
        </mxCell>
        <mxCell id="UE9l_4JBoyCNHq1S5aQx-102" value="subscribers.csv,&amp;nbsp;&lt;div style=&quot;font-size: 15px;&quot;&gt;start / stop&amp;nbsp;&lt;/div&gt;&lt;div style=&quot;font-size: 15px;&quot;&gt;commands&lt;/div&gt;" style="text;html=1;align=center;verticalAlign=middle;resizable=0;points=[];autosize=1;strokeColor=none;fillColor=none;fontSize=15;" vertex="1" parent="UE9l_4JBoyCNHq1S5aQx-130">
          <mxGeometry x="386.95384615384626" y="1323.4271922767498" width="130" height="67" as="geometry" />
        </mxCell>
        <mxCell id="UE9l_4JBoyCNHq1S5aQx-110" style="edgeStyle=orthogonalEdgeStyle;rounded=0;orthogonalLoop=1;jettySize=auto;html=1;" edge="1" parent="UE9l_4JBoyCNHq1S5aQx-130" source="UE9l_4JBoyCNHq1S5aQx-104">
          <mxGeometry relative="1" as="geometry">
            <mxPoint x="967.3846153846155" y="1721.7055510860819" as="targetPoint" />
            <Array as="points">
              <mxPoint x="778.7446153846155" y="1834.2236524537407" />
              <mxPoint x="778.7446153846155" y="1721.7055510860819" />
            </Array>
          </mxGeometry>
        </mxCell>
        <mxCell id="UE9l_4JBoyCNHq1S5aQx-104" value="srsRAN gNB" style="rounded=1;whiteSpace=wrap;html=1;fontSize=15;" vertex="1" parent="UE9l_4JBoyCNHq1S5aQx-130">
          <mxGeometry x="469.1815384615385" y="1768.141592920354" width="204.7630769230769" height="132.16411906677394" as="geometry" />
        </mxCell>
        <mxCell id="UE9l_4JBoyCNHq1S5aQx-111" value="Local Subnet" style="sketch=0;aspect=fixed;pointerEvents=1;shadow=0;dashed=0;html=1;strokeColor=none;labelPosition=center;verticalLabelPosition=bottom;verticalAlign=top;align=center;fillColor=#00188D;shape=mxgraph.mscae.enterprise.router;fontSize=15;" vertex="1" parent="UE9l_4JBoyCNHq1S5aQx-130">
          <mxGeometry x="1028.6523076923077" y="189.31617055510858" width="144.2523137407319" height="112.51399186797416" as="geometry" />
        </mxCell>
        <mxCell id="UE9l_4JBoyCNHq1S5aQx-113" value="Machine A" style="swimlane;whiteSpace=wrap;html=1;startSize=49;fontSize=24;" vertex="1" parent="UE9l_4JBoyCNHq1S5aQx-130">
          <mxGeometry x="1713.8830769230772" y="225.0362027353178" width="1430.116923076923" height="1994.9637972646824" as="geometry" />
        </mxCell>
        <mxCell id="UE9l_4JBoyCNHq1S5aQx-116" value="Machine B" style="swimlane;whiteSpace=wrap;html=1;startSize=49;fontSize=24;" vertex="1" parent="UE9l_4JBoyCNHq1S5aQx-130">
          <mxGeometry y="819.7747385358006" width="1220.5169230769231" height="1398.4392598551892" as="geometry" />
        </mxCell>
        <mxCell id="UE9l_4JBoyCNHq1S5aQx-10" value="ZMQ" style="rounded=1;whiteSpace=wrap;html=1;fontSize=15;" vertex="1" parent="UE9l_4JBoyCNHq1S5aQx-116">
          <mxGeometry x="991.569230769231" y="996.5888978278359" width="193.47692307692313" height="107.16009654062749" as="geometry" />
        </mxCell>
        <mxCell id="UE9l_4JBoyCNHq1S5aQx-105" value="Graphana Metrics&lt;div style=&quot;font-size: 15px;&quot;&gt;Server&lt;/div&gt;" style="rounded=1;whiteSpace=wrap;html=1;fontSize=15;" vertex="1" parent="UE9l_4JBoyCNHq1S5aQx-116">
          <mxGeometry x="599.7784615384616" y="203.60418342719228" width="343.4215384615385" height="223.25020112630727" as="geometry" />
        </mxCell>
        <mxCell id="UE9l_4JBoyCNHq1S5aQx-129" value="" style="image;sketch=0;aspect=fixed;html=1;points=[];align=center;fontSize=15;image=img/lib/mscae/Docker.svg;" vertex="1" parent="UE9l_4JBoyCNHq1S5aQx-116">
          <mxGeometry x="851.2984615384617" y="210.7481898632341" width="78.13471657498206" height="64.0704675914853" as="geometry" />
        </mxCell>
        <mxCell id="UE9l_4JBoyCNHq1S5aQx-117" style="edgeStyle=orthogonalEdgeStyle;rounded=0;orthogonalLoop=1;jettySize=auto;html=1;entryX=0.13;entryY=0.5;entryDx=0;entryDy=0;entryPerimeter=0;" edge="1" parent="UE9l_4JBoyCNHq1S5aQx-130" source="UE9l_4JBoyCNHq1S5aQx-116" target="UE9l_4JBoyCNHq1S5aQx-111">
          <mxGeometry relative="1" as="geometry">
            <Array as="points">
              <mxPoint x="609.4523076923078" y="253.6122284794851" />
            </Array>
          </mxGeometry>
        </mxCell>
        <mxCell id="UE9l_4JBoyCNHq1S5aQx-118" style="edgeStyle=orthogonalEdgeStyle;rounded=0;orthogonalLoop=1;jettySize=auto;html=1;entryX=0.87;entryY=0.5;entryDx=0;entryDy=0;entryPerimeter=0;" edge="1" parent="UE9l_4JBoyCNHq1S5aQx-130" source="UE9l_4JBoyCNHq1S5aQx-113" target="UE9l_4JBoyCNHq1S5aQx-111">
          <mxGeometry relative="1" as="geometry">
            <Array as="points">
              <mxPoint x="1958.9538461538464" y="253.6122284794851" />
              <mxPoint x="1958.9538461538464" y="253.6122284794851" />
            </Array>
          </mxGeometry>
        </mxCell>
        <mxCell id="UE9l_4JBoyCNHq1S5aQx-119" value="IP Commands" style="swimlane;fontStyle=0;childLayout=stackLayout;horizontal=1;startSize=30;horizontalStack=0;resizeParent=1;resizeParentMax=0;resizeLast=0;collapsible=1;marginBottom=0;whiteSpace=wrap;html=1;fontSize=15;" vertex="1" parent="UE9l_4JBoyCNHq1S5aQx-130">
          <mxGeometry x="1317.255384615385" y="19.646017699115045" width="257.9692307692308" height="190.74014481094122" as="geometry" />
        </mxCell>
        <mxCell id="UE9l_4JBoyCNHq1S5aQx-120" value="gNB start / stop" style="text;strokeColor=none;fillColor=none;align=left;verticalAlign=middle;spacingLeft=4;spacingRight=4;overflow=hidden;points=[[0,0.5],[1,0.5]];portConstraint=eastwest;rotatable=0;whiteSpace=wrap;html=1;fontSize=15;" vertex="1" parent="UE9l_4JBoyCNHq1S5aQx-119">
          <mxGeometry y="30" width="257.9692307692308" height="53.580048270313746" as="geometry" />
        </mxCell>
        <mxCell id="UE9l_4JBoyCNHq1S5aQx-121" value="iperf start / stop" style="text;strokeColor=none;fillColor=none;align=left;verticalAlign=middle;spacingLeft=4;spacingRight=4;overflow=hidden;points=[[0,0.5],[1,0.5]];portConstraint=eastwest;rotatable=0;whiteSpace=wrap;html=1;fontSize=15;" vertex="1" parent="UE9l_4JBoyCNHq1S5aQx-119">
          <mxGeometry y="83.58004827031374" width="257.9692307692308" height="53.580048270313746" as="geometry" />
        </mxCell>
        <mxCell id="UE9l_4JBoyCNHq1S5aQx-122" value="open5gs start / stop" style="text;strokeColor=none;fillColor=none;align=left;verticalAlign=middle;spacingLeft=4;spacingRight=4;overflow=hidden;points=[[0,0.5],[1,0.5]];portConstraint=eastwest;rotatable=0;whiteSpace=wrap;html=1;fontSize=15;" vertex="1" parent="UE9l_4JBoyCNHq1S5aQx-119">
          <mxGeometry y="137.16009654062748" width="257.9692307692308" height="53.580048270313746" as="geometry" />
        </mxCell>
        <mxCell id="UE9l_4JBoyCNHq1S5aQx-123" value="IP Metrics" style="swimlane;fontStyle=0;childLayout=stackLayout;horizontal=1;startSize=30;horizontalStack=0;resizeParent=1;resizeParentMax=0;resizeLast=0;collapsible=1;marginBottom=0;whiteSpace=wrap;html=1;fontSize=15;" vertex="1" parent="UE9l_4JBoyCNHq1S5aQx-130">
          <mxGeometry x="673.9446153846153" width="272.48" height="190.74014481094122" as="geometry" />
        </mxCell>
        <mxCell id="UE9l_4JBoyCNHq1S5aQx-124" value="Graphana Metrics" style="text;strokeColor=none;fillColor=none;align=left;verticalAlign=middle;spacingLeft=4;spacingRight=4;overflow=hidden;points=[[0,0.5],[1,0.5]];portConstraint=eastwest;rotatable=0;whiteSpace=wrap;html=1;fontSize=15;" vertex="1" parent="UE9l_4JBoyCNHq1S5aQx-123">
          <mxGeometry y="30" width="272.48" height="53.580048270313746" as="geometry" />
        </mxCell>
        <mxCell id="UE9l_4JBoyCNHq1S5aQx-125" value="Iperf server data" style="text;strokeColor=none;fillColor=none;align=left;verticalAlign=middle;spacingLeft=4;spacingRight=4;overflow=hidden;points=[[0,0.5],[1,0.5]];portConstraint=eastwest;rotatable=0;whiteSpace=wrap;html=1;fontSize=15;" vertex="1" parent="UE9l_4JBoyCNHq1S5aQx-123">
          <mxGeometry y="83.58004827031374" width="272.48" height="53.580048270313746" as="geometry" />
        </mxCell>
        <mxCell id="UE9l_4JBoyCNHq1S5aQx-126" value="Running Process Data" style="text;strokeColor=none;fillColor=none;align=left;verticalAlign=middle;spacingLeft=4;spacingRight=4;overflow=hidden;points=[[0,0.5],[1,0.5]];portConstraint=eastwest;rotatable=0;whiteSpace=wrap;html=1;fontSize=15;" vertex="1" parent="UE9l_4JBoyCNHq1S5aQx-123">
          <mxGeometry y="137.16009654062748" width="272.48" height="53.580048270313746" as="geometry" />
        </mxCell>
      </root>
    </mxGraphModel>
  </diagram>
</mxfile>
